RobotoCondensed-Bold.ufo
<glyph name="t" format="2">
  <advance width="629"/>
  <unicode hex="0074"/>
  <anchor x="387" y="0" name="bottom"/>
  <anchor x="313" y="1476" name="top"/>
  <anchor x="610" y="1298" name="marktop"/>
  <anchor x="609" y="1600" name="top_dd"/>
  <anchor x="609" y="-407" name="bottom_dd"/>
  <anchor x="609" y="1476" name="top0315"/>
  <anchor x="313" y="1476" name="parent_top"/>
  <outline>
    <contour>
      <point x="577" y="1082" type="line"/>
      <point x="24" y="1082" type="line"/>
      <point x="24" y="869" type="line"/>
      <point x="577" y="869" type="line"/>
    </contour>
    <contour>
      <point x="150" y="1349" type="line"/>
      <point x="150" y="301" type="line"/>
      <point x="150" y="70"/>
      <point x="258" y="-20"/>
      <point x="426" y="-20" type="curve" smooth="yes"/>
      <point x="492" y="-20"/>
      <point x="539" y="-10"/>
      <point x="583" y="7" type="curve"/>
      <point x="584" y="228" type="line"/>
      <point x="570" y="224"/>
      <point x="546" y="220"/>
      <point x="517" y="220" type="curve" smooth="yes"/>
      <point x="456" y="220"/>
      <point x="432" y="242"/>
      <point x="432" y="332" type="curve"/>
      <point x="432" y="1349" type="line"/>
    </contour>
  </outline>
</glyph>
<glyph name="braceleft" format="2">
  <advance width="610"/>
  <unicode hex="007B"/>
  <outline>
    <contour>
      <point x="503" y="1597" type="line"/>
      <point x="267" y="1520"/>
      <point x="194" y="1342"/>
      <point x="194" y="1132" type="curve"/>
      <point x="194" y="929" type="line"/>
      <point x="194" y="803"/>
      <point x="153" y="723"/>
      <point x="56" y="723" type="curve"/>
      <point x="56" y="566" type="line"/>
      <point x="332" y="566"/>
      <point x="446" y="726"/>
      <point x="446" y="929" type="curve"/>
      <point x="446" y="1132" type="line"/>
      <point x="446" y="1274"/>
      <point x="467" y="1392"/>
      <point x="556" y="1435" type="curve"/>
    </contour>
    <contour>
      <point x="555" y="-197" type="line"/>
      <point x="466" y="-154"/>
      <point x="446" y="-36"/>
      <point x="446" y="106" type="curve" smooth="yes"/>
      <point x="446" y="309" type="line" smooth="yes"/>
      <point x="446" y="512"/>
      <point x="332" y="672"/>
      <point x="56" y="672" type="curve"/>
      <point x="56" y="515" type="line"/>
      <point x="153" y="515"/>
      <point x="194" y="434"/>
      <point x="194" y="309" type="curve" smooth="yes"/>
      <point x="194" y="106" type="line" smooth="yes"/>
      <point x="194" y="-104"/>
      <point x="267" y="-283"/>
      <point x="503" y="-360" type="curve"/>
    </contour>
  </outline>
</glyph>
<glyph name="cent" format="2">
  <advance width="1043"/>
  <unicode hex="00A2"/>
  <outline>
    <contour>
      <point x="623" y="1318" type="line"/>
      <point x="432" y="1318" type="line"/>
      <point x="432" y="1026" type="line"/>
      <point x="623" y="1026" type="line"/>
    </contour>
    <contour>
      <point x="623" y="46" type="line"/>
      <point x="432" y="46" type="line"/>
      <point x="432" y="-245" type="line"/>
      <point x="623" y="-245" type="line"/>
    </contour>
    <contour>
      <point x="523" y="215" type="curve" smooth="yes"/>
      <point x="396" y="215"/>
      <point x="381" y="361"/>
      <point x="381" y="527" type="curve" smooth="yes"/>
      <point x="381" y="555" type="line" smooth="yes"/>
      <point x="381" y="717"/>
      <point x="397" y="867"/>
      <point x="521" y="867" type="curve"/>
      <point x="610" y="867"/>
      <point x="647" y="783"/>
      <point x="648" y="678" type="curve"/>
      <point x="913" y="678" type="line"/>
      <point x="912" y="940"/>
      <point x="759" y="1102"/>
      <point x="527" y="1102" type="curve" smooth="yes"/>
      <point x="238" y="1102"/>
      <point x="98" y="861"/>
      <point x="98" y="555" type="curve" smooth="yes"/>
      <point x="98" y="527" type="line" smooth="yes"/>
      <point x="98" y="220"/>
      <point x="237" y="-20"/>
      <point x="528" y="-20" type="curve"/>
      <point x="745" y="-20"/>
      <point x="912" y="145"/>
      <point x="913" y="375" type="curve"/>
      <point x="648" y="375" type="line"/>
      <point x="647" y="278"/>
      <point x="601" y="215"/>
    </contour>
  </outline>
</glyph>
<glyph name="yen" format="2">
  <advance width="973"/>
  <unicode hex="00A5"/>
  <outline>
    <contour>
      <point x="854" y="742" type="line"/>
      <point x="93" y="742" type="line"/>
      <point x="93" y="567" type="line"/>
      <point x="854" y="567" type="line"/>
    </contour>
    <contour>
      <point x="854" y="452" type="line"/>
      <point x="93" y="452" type="line"/>
      <point x="93" y="278" type="line"/>
      <point x="854" y="278" type="line"/>
    </contour>
    <contour>
      <point x="411" y="712" type="line"/>
      <point x="457" y="556" type="line"/>
      <point x="617" y="556" type="line"/>
      <point x="948" y="1456" type="line"/>
      <point x="643" y="1456" type="line"/>
    </contour>
    <contour>
      <point x="332" y="1456" type="line"/>
      <point x="25" y="1456" type="line"/>
      <point x="359" y="556" type="line"/>
      <point x="518" y="556" type="line"/>
      <point x="569" y="703" type="line"/>
    </contour>
    <contour>
      <point x="630" y="760" type="line"/>
      <point x="336" y="760" type="line"/>
      <point x="336" y="0" type="line"/>
      <point x="630" y="0" type="line"/>
    </contour>
  </outline>
</glyph>
<glyph name="OE" format="2">
  <advance width="1724"/>
  <unicode hex="0152"/>
  <anchor x="855" y="1600" name="top"/>
  <anchor x="855" y="0" name="bottom"/>
  <anchor x="1704" y="1600" name="top_dd"/>
  <anchor x="1704" y="-407" name="bottom_dd"/>
  <anchor x="1704" y="1600" name="top0315"/>
  <anchor x="855" y="1600" name="parent_top"/>
  <outline>
    <contour>
      <point x="621" y="1476" type="curve" smooth="yes"/>
      <point x="310" y="1476"/>
      <point x="99" y="1233"/>
      <point x="99" y="880" type="curve"/>
      <point x="99" y="576" type="line"/>
      <point x="99" y="223"/>
      <point x="311" y="-20"/>
      <point x="622" y="-20" type="curve" smooth="yes"/>
      <point x="705" y="-20"/>
      <point x="785" y="-10"/>
      <point x="857" y="0" type="curve"/>
      <point x="857" y="242" type="line"/>
      <point x="786" y="226"/>
      <point x="707" y="215"/>
      <point x="622" y="215" type="curve" smooth="yes"/>
      <point x="474" y="215"/>
      <point x="381" y="336"/>
      <point x="381" y="576" type="curve"/>
      <point x="381" y="882" type="line"/>
      <point x="381" y="1122"/>
      <point x="473" y="1241"/>
      <point x="621" y="1241" type="curve" smooth="yes"/>
      <point x="705" y="1241"/>
      <point x="786" y="1229"/>
      <point x="857" y="1214" type="curve"/>
      <point x="857" y="1456" type="line"/>
      <point x="785" y="1467"/>
      <point x="703" y="1476"/>
    </contour>
    <contour>
      <point x="1611" y="244" type="line"/>
      <point x="979" y="244" type="line"/>
      <point x="979" y="0" type="line"/>
      <point x="1611" y="0" type="line"/>
    </contour>
    <contour>
      <point x="1069" y="1456" type="line"/>
      <point x="775" y="1456" type="line"/>
      <point x="775" y="0" type="line"/>
      <point x="1069" y="0" type="line"/>
    </contour>
    <contour>
      <point x="1527" y="867" type="line"/>
      <point x="979" y="867" type="line"/>
      <point x="979" y="630" type="line"/>
      <point x="1527" y="630" type="line"/>
    </contour>
    <contour>
      <point x="1609" y="1456" type="line"/>
      <point x="979" y="1456" type="line"/>
      <point x="979" y="1211" type="line"/>
      <point x="1609" y="1211" type="line"/>
    </contour>
  </outline>
</glyph>
<glyph name="deltaturn" format="2">
  <advance width="1017"/>
  <unicode hex="018D"/>
  <outline>
    <contour>
      <point x="846" y="-375" type="line"/>
      <point x="846" y="-220" type="line"/>
      <point x="790" y="-145"/>
      <point x="680" y="-1"/>
      <point x="616" y="78" type="curve"/>
      <point x="620" y="79"/>
      <point x="615" y="79"/>
      <point x="625" y="80" type="curve" smooth="yes"/>
      <point x="807" y="118"/>
      <point x="942" y="310"/>
      <point x="942" y="580" type="curve" smooth="yes"/>
      <point x="942" y="601" type="line" smooth="yes"/>
      <point x="942" y="888"/>
      <point x="790" y="1102"/>
      <point x="507" y="1102" type="curve" smooth="yes"/>
      <point x="224" y="1102"/>
      <point x="73" y="875"/>
      <point x="73" y="571" type="curve" smooth="yes"/>
      <point x="73" y="550" type="line" smooth="yes"/>
      <point x="73" y="327"/>
      <point x="204" y="154"/>
      <point x="372" y="-6" type="curve" smooth="yes"/>
      <point x="418" y="-66"/>
      <point x="458" y="-110"/>
      <point x="479" y="-141" type="curve"/>
      <point x="166" y="-141" type="line"/>
      <point x="166" y="-375" type="line"/>
    </contour>
    <contour>
      <point x="659" y="550" type="line"/>
      <point x="659" y="376"/>
      <point x="629" y="232"/>
      <point x="511" y="232" type="curve" smooth="yes"/>
      <point x="497" y="232"/>
      <point x="494" y="234"/>
      <point x="484" y="239" type="curve"/>
      <point x="411" y="290"/>
      <point x="356" y="399"/>
      <point x="356" y="550" type="curve" smooth="yes"/>
      <point x="356" y="571" type="line" smooth="yes"/>
      <point x="356" y="735"/>
      <point x="389" y="867"/>
      <point x="507" y="867" type="curve" smooth="yes"/>
      <point x="628" y="867"/>
      <point x="659" y="735"/>
      <point x="659" y="571" type="curve" smooth="yes"/>
    </contour>
  </outline>
</glyph>
<glyph name="Ohorn" format="2">
  <advance width="1245"/>
  <unicode hex="01A0"/>
  <anchor x="610" y="1604" name="top"/>
  <anchor x="592" y="0" name="bottom"/>
  <anchor x="1225" y="1604" name="top0315"/>
  <anchor x="610" y="1604" name="parent_top"/>
  <outline>
    <contour>
      <point x="1067" y="1566" type="line"/>
      <point x="1067" y="1388"/>
      <point x="1036" y="1281"/>
      <point x="931" y="1281" type="curve"/>
      <point x="931" y="1122" type="line"/>
      <point x="1152" y="1122"/>
      <point x="1255" y="1284"/>
      <point x="1255" y="1566" type="curve"/>
    </contour>
    <contour>
      <point x="1140" y="760" type="line"/>
      <point x="1140" y="1204"/>
      <point x="920" y="1476"/>
      <point x="607" y="1476" type="curve" smooth="yes"/>
      <point x="295" y="1476"/>
      <point x="74" y="1204"/>
      <point x="74" y="760" type="curve"/>
      <point x="74" y="695" type="line"/>
      <point x="74" y="251"/>
      <point x="296" y="-20"/>
      <point x="608" y="-20" type="curve" smooth="yes"/>
      <point x="921" y="-20"/>
      <point x="1140" y="251"/>
      <point x="1140" y="695" type="curve"/>
    </contour>
    <contour>
      <point x="842" y="695" type="line"/>
      <point x="842" y="394"/>
      <point x="759" y="229"/>
      <point x="608" y="229" type="curve" smooth="yes"/>
      <point x="457" y="229"/>
      <point x="371" y="394"/>
      <point x="371" y="695" type="curve" smooth="yes"/>
      <point x="371" y="762" type="line" smooth="yes"/>
      <point x="371" y="1065"/>
      <point x="456" y="1226"/>
      <point x="607" y="1226" type="curve" smooth="yes"/>
      <point x="756" y="1226"/>
      <point x="842" y="1065"/>
      <point x="842" y="762" type="curve"/>
    </contour>
  </outline>
</glyph>
<glyph name="tpalatalhook" format="2">
  <advance width="629"/>
  <unicode hex="01AB"/>
  <outline>
    <contour>
      <point x="392" y="124" type="line"/>
      <point x="392" y="-58" type="line" smooth="yes"/>
      <point x="392" y="-170"/>
      <point x="313" y="-199"/>
      <point x="256" y="-199" type="curve" smooth="yes"/>
      <point x="238" y="-199"/>
      <point x="220" y="-196"/>
      <point x="199" y="-192" type="curve"/>
      <point x="201" y="-387" type="line"/>
      <point x="236" y="-398"/>
      <point x="270" y="-402"/>
      <point x="306" y="-402" type="curve" smooth="yes"/>
      <point x="478" y="-402"/>
      <point x="583" y="-280"/>
      <point x="583" y="-58" type="curve" smooth="yes"/>
      <point x="583" y="8" type="line"/>
    </contour>
    <contour>
      <point x="577" y="1082" type="line"/>
      <point x="24" y="1082" type="line"/>
      <point x="24" y="869" type="line"/>
      <point x="577" y="869" type="line"/>
    </contour>
    <contour>
      <point x="150" y="1349" type="line"/>
      <point x="150" y="301" type="line"/>
      <point x="150" y="70"/>
      <point x="258" y="-20"/>
      <point x="426" y="-20" type="curve" smooth="yes"/>
      <point x="492" y="-20"/>
      <point x="539" y="-10"/>
      <point x="583" y="7" type="curve"/>
      <point x="584" y="228" type="line"/>
      <point x="570" y="224"/>
      <point x="546" y="220"/>
      <point x="517" y="220" type="curve" smooth="yes"/>
      <point x="456" y="220"/>
      <point x="432" y="242"/>
      <point x="432" y="332" type="curve"/>
      <point x="432" y="1349" type="line"/>
    </contour>
  </outline>
</glyph>
<glyph name="dhook" format="2">
  <advance width="1141"/>
  <unicode hex="0257"/>
  <anchor x="433" y="1600" name="top"/>
  <anchor x="513" y="0" name="bottom"/>
  <anchor x="1106" y="1600" name="top0315"/>
  <anchor x="433" y="1600" name="parent_top"/>
  <outline>
    <contour>
      <point x="626" y="239" type="line"/>
      <point x="665" y="0" type="line"/>
      <point x="910" y="0" type="line"/>
      <point x="910" y="1173" type="line"/>
      <point x="626" y="1173" type="line"/>
    </contour>
    <contour>
      <point x="66" y="503" type="line"/>
      <point x="66" y="164"/>
      <point x="189" y="-20"/>
      <point x="416" y="-20" type="curve" smooth="yes"/>
      <point x="622" y="-20"/>
      <point x="722" y="200"/>
      <point x="753" y="483" type="curve"/>
      <point x="753" y="587" type="line"/>
      <point x="724" y="884"/>
      <point x="623" y="1102"/>
      <point x="417" y="1102" type="curve" smooth="yes"/>
      <point x="189" y="1102"/>
      <point x="66" y="929"/>
      <point x="66" y="574" type="curve" smooth="yes"/>
    </contour>
    <contour>
      <point x="349" y="574" type="line"/>
      <point x="349" y="779"/>
      <point x="387" y="866"/>
      <point x="499" y="866" type="curve" smooth="yes"/>
      <point x="601" y="866"/>
      <point x="656" y="775"/>
      <point x="659" y="628" type="curve"/>
      <point x="659" y="441" type="line"/>
      <point x="655" y="309"/>
      <point x="607" y="217"/>
      <point x="498" y="217" type="curve" smooth="yes"/>
      <point x="384" y="217"/>
      <point x="349" y="304"/>
      <point x="349" y="503" type="curve" smooth="yes"/>
    </contour>
    <contour>
      <point x="910" y="1051" type="line"/>
      <point x="910" y="1232" type="line" smooth="yes"/>
      <point x="910" y="1344"/>
      <point x="988" y="1372"/>
      <point x="1044" y="1372" type="curve" smooth="yes"/>
      <point x="1063" y="1372"/>
      <point x="1080" y="1370"/>
      <point x="1102" y="1365" type="curve"/>
      <point x="1100" y="1561" type="line"/>
      <point x="1064" y="1571"/>
      <point x="1021" y="1576"/>
      <point x="966" y="1576" type="curve" smooth="yes"/>
      <point x="823" y="1576"/>
      <point x="626" y="1522"/>
      <point x="626" y="1232" type="curve" smooth="yes"/>
      <point x="626" y="1051" type="line"/>
    </contour>
  </outline>
</glyph>
<glyph name="uni0292" format="2">
  <advance width="1030"/>
  <unicode hex="0292"/>
  <anchor x="516" y="1290" name="top"/>
  <anchor x="516" y="-447" name="bottom"/>
  <anchor x="1010" y="1290" name="top0315"/>
  <anchor x="516" y="1290" name="parent_top"/>
  <outline>
    <contour>
      <point x="513" y="-436" type="curve" smooth="yes"/>
      <point x="782" y="-436"/>
      <point x="976" y="-280"/>
      <point x="976" y="-2" type="curve" smooth="yes"/>
      <point x="976" y="246"/>
      <point x="863" y="409"/>
      <point x="669" y="449" type="curve" smooth="yes"/>
      <point x="653" y="453" type="line"/>
      <point x="944" y="890" type="line"/>
      <point x="944" y="1082" type="line"/>
      <point x="137" y="1082" type="line"/>
      <point x="137" y="847" type="line"/>
      <point x="619" y="847" type="line"/>
      <point x="355" y="454" type="line"/>
      <point x="355" y="268" type="line"/>
      <point x="474" y="268" type="line" smooth="yes"/>
      <point x="617" y="268"/>
      <point x="693" y="191"/>
      <point x="693" y="18" type="curve" smooth="yes"/>
      <point x="693" y="-115"/>
      <point x="626" y="-201"/>
      <point x="513" y="-201" type="curve" smooth="yes"/>
      <point x="416" y="-201"/>
      <point x="377" y="-141"/>
      <point x="361" y="-45" type="curve"/>
      <point x="78" y="-45" type="line"/>
      <point x="111" y="-333"/>
      <point x="297" y="-436"/>
    </contour>
  </outline>
</glyph>
<glyph name="uni030F" format="2">
  <unicode hex="030F"/>
  <anchor x="-359" y="1291" name="_top"/>
  <anchor x="-359" y="1631" name="top"/>
  <anchor x="-359" y="1631" name="mkmktop_acc"/>
  <anchor x="-478" y="1385" name="parent_top"/>
  <outline>
    <contour>
      <point x="-394" y="1252" type="line"/>
      <point x="-623" y="1252" type="line"/>
      <point x="-867" y="1518" type="line"/>
      <point x="-593" y="1518" type="line"/>
    </contour>
    <contour>
      <point x="-89" y="1252" type="line"/>
      <point x="-313" y="1252" type="line"/>
      <point x="-518" y="1518" type="line"/>
      <point x="-248" y="1518" type="line"/>
    </contour>
  </outline>
</glyph>
<glyph name="tildevertsupnosp" format="2">
  <unicode hex="033E"/>
  <anchor x="-471" y="1096" name="_top"/>
  <anchor x="-471" y="1768" name="top"/>
  <anchor x="-471" y="1768" name="parent_top"/>
  <outline>
    <contour>
      <point x="-584" y="1117" type="line"/>
      <point x="-446" y="1117"/>
      <point x="-361" y="1158"/>
      <point x="-361" y="1259" type="curve" smooth="yes"/>
      <point x="-361" y="1356"/>
      <point x="-408" y="1434"/>
      <point x="-408" y="1502" type="curve" smooth="yes"/>
      <point x="-408" y="1529"/>
      <point x="-394" y="1553"/>
      <point x="-361" y="1553" type="curve"/>
      <point x="-361" y="1695" type="line"/>
      <point x="-479" y="1695"/>
      <point x="-577" y="1662"/>
      <point x="-577" y="1552" type="curve" smooth="yes"/>
      <point x="-577" y="1461"/>
      <point x="-528" y="1366"/>
      <point x="-528" y="1314" type="curve" smooth="yes"/>
      <point x="-528" y="1289"/>
      <point x="-530" y="1260"/>
      <point x="-584" y="1260" type="curve"/>
    </contour>
  </outline>
</glyph>
<glyph name="uni0351" format="2">
  <unicode hex="0351"/>
  <anchor x="-424" y="1126" name="_top"/>
  <anchor x="-424" y="1562" name="top"/>
  <anchor x="-424" y="1562" name="parent_top"/>
  <outline>
    <contour>
      <point x="-372" y="1136" type="curve"/>
      <point x="-372" y="1231" type="line"/>
      <point x="-421" y="1231"/>
      <point x="-454" y="1270"/>
      <point x="-454" y="1327" type="curve" smooth="yes"/>
      <point x="-454" y="1386"/>
      <point x="-421" y="1426"/>
      <point x="-372" y="1426" type="curve"/>
      <point x="-372" y="1522" type="line"/>
      <point x="-478" y="1522"/>
      <point x="-561" y="1438"/>
      <point x="-561" y="1327" type="curve" smooth="yes"/>
      <point x="-561" y="1215"/>
      <point x="-478" y="1136"/>
    </contour>
  </outline>
</glyph>
<glyph name="Lambda" format="2">
  <advance width="1156"/>
  <unicode hex="039B"/>
  <outline>
    <contour>
      <point x="17" y="0" type="line"/>
      <point x="329" y="0" type="line"/>
      <point x="577" y="1054" type="line"/>
      <point x="826" y="0" type="line"/>
      <point x="1139" y="0" type="line"/>
      <point x="711" y="1456" type="line"/>
      <point x="442" y="1456" type="line"/>
    </contour>
  </outline>
</glyph>
<glyph name="beta" format="2">
  <advance width="1079"/>
  <unicode hex="03B2"/>
  <outline>
    <contour>
      <point x="134" y="-416" type="line"/>
      <point x="416" y="-416" type="line"/>
      <point x="416" y="82" type="line"/>
      <point x="466" y="9"/>
      <point x="545" y="-20"/>
      <point x="651" y="-20" type="curve" smooth="yes"/>
      <point x="882" y="-20"/>
      <point x="1000" y="172"/>
      <point x="1000" y="467" type="curve" smooth="yes"/>
      <point x="1000" y="677"/>
      <point x="918" y="818"/>
      <point x="739" y="854" type="curve"/>
      <point x="739" y="828" type="line"/>
      <point x="841" y="861"/>
      <point x="927" y="990"/>
      <point x="927" y="1158" type="curve" smooth="yes"/>
      <point x="927" y="1415"/>
      <point x="794" y="1557"/>
      <point x="549" y="1557" type="curve" smooth="yes"/>
      <point x="292" y="1557"/>
      <point x="134" y="1406"/>
      <point x="134" y="1064" type="curve" smooth="yes"/>
    </contour>
    <contour>
      <point x="557" y="215" type="curve" smooth="yes"/>
      <point x="507" y="215"/>
      <point x="445" y="237"/>
      <point x="416" y="313" type="curve"/>
      <point x="416" y="1103" type="line" smooth="yes"/>
      <point x="416" y="1283"/>
      <point x="461" y="1338"/>
      <point x="539" y="1338" type="curve" smooth="yes"/>
      <point x="610" y="1338"/>
      <point x="653" y="1281"/>
      <point x="653" y="1128" type="curve" smooth="yes"/>
      <point x="653" y="994"/>
      <point x="629" y="916"/>
      <point x="527" y="916" type="curve" smooth="yes"/>
      <point x="472" y="916" type="line"/>
      <point x="472" y="693" type="line"/>
      <point x="529" y="693" type="line" smooth="yes"/>
      <point x="673" y="693"/>
      <point x="715" y="618"/>
      <point x="715" y="457" type="curve" smooth="yes"/>
      <point x="715" y="266"/>
      <point x="644" y="215"/>
    </contour>
  </outline>
</glyph>
<glyph name="gamma" format="2">
  <advance width="930"/>
  <unicode hex="03B3"/>
  <outline>
    <contour>
      <point x="329" y="-366" type="line"/>
      <point x="600" y="-366" type="line"/>
      <point x="600" y="0" type="line"/>
      <point x="897" y="1082" type="line"/>
      <point x="602" y="1082" type="line"/>
      <point x="466" y="401" type="line"/>
      <point x="328" y="1082" type="line"/>
      <point x="32" y="1082" type="line"/>
      <point x="329" y="0" type="line"/>
    </contour>
  </outline>
</glyph>
<glyph name="pi" format="2">
  <advance width="1166"/>
  <unicode hex="03C0"/>
  <outline>
    <contour>
      <point x="44" y="849" type="line"/>
      <point x="1113" y="849" type="line"/>
      <point x="1113" y="1082" type="line"/>
      <point x="44" y="1082" type="line"/>
    </contour>
    <contour>
      <point x="175" y="0" type="line"/>
      <point x="457" y="0" type="line"/>
      <point x="457" y="962" type="line"/>
      <point x="175" y="962" type="line"/>
    </contour>
    <contour>
      <point x="981" y="-19" type="curve" smooth="yes"/>
      <point x="1028" y="-19"/>
      <point x="1100" y="-7"/>
      <point x="1124" y="7" type="curve"/>
      <point x="1124" y="212" type="line"/>
      <point x="1109" y="204"/>
      <point x="1086" y="195"/>
      <point x="1055" y="195" type="curve" smooth="yes"/>
      <point x="1024" y="195"/>
      <point x="991" y="204"/>
      <point x="991" y="297" type="curve"/>
      <point x="991" y="962" type="line"/>
      <point x="707" y="962" type="line"/>
      <point x="707" y="268" type="line" smooth="yes"/>
      <point x="707" y="49"/>
      <point x="784" y="-19"/>
    </contour>
  </outline>
</glyph>
<glyph name="uni03FE" format="2">
  <advance width="1168"/>
  <unicode hex="03FE"/>
  <outline>
    <contour>
      <point x="810" y="486" type="line"/>
      <point x="801" y="313"/>
      <point x="745" y="228"/>
      <point x="600" y="228" type="curve" smooth="yes"/>
      <point x="433" y="228"/>
      <point x="381" y="379"/>
      <point x="381" y="681" type="curve" smooth="yes"/>
      <point x="381" y="777" type="line" smooth="yes"/>
      <point x="381" y="1085"/>
      <point x="449" y="1229"/>
      <point x="604" y="1229" type="curve" smooth="yes"/>
      <point x="757" y="1229"/>
      <point x="803" y="1134"/>
      <point x="812" y="962" type="curve"/>
      <point x="1106" y="962" type="line"/>
      <point x="1083" y="1259"/>
      <point x="922" y="1477"/>
      <point x="604" y="1477" type="curve" smooth="yes"/>
      <point x="287" y="1477"/>
      <point x="82" y="1206"/>
      <point x="82" y="775" type="curve" smooth="yes"/>
      <point x="82" y="681" type="line" smooth="yes"/>
      <point x="82" y="250"/>
      <point x="277" y="-20"/>
      <point x="600" y="-20" type="curve" smooth="yes"/>
      <point x="912" y="-20"/>
      <point x="1089" y="189"/>
      <point x="1104" y="486" type="curve"/>
    </contour>
    <contour>
      <point x="457" y="728" type="curve" smooth="yes"/>
      <point x="457" y="649"/>
      <point x="517" y="589"/>
      <point x="611" y="589" type="curve" smooth="yes"/>
      <point x="706" y="589"/>
      <point x="766" y="649"/>
      <point x="766" y="728" type="curve" smooth="yes"/>
      <point x="766" y="807"/>
      <point x="706" y="867"/>
      <point x="611" y="867" type="curve" smooth="yes"/>
      <point x="517" y="867"/>
      <point x="457" y="807"/>
    </contour>
  </outline>
</glyph>
<glyph name="uni044D" format="2">
  <advance width="930"/>
  <unicode hex="044D"/>
  <anchor x="456" y="1290" name="top"/>
  <anchor x="910" y="1290" name="top0315"/>
  <anchor x="456" y="1290" name="parent_top"/>
  <outline>
    <contour>
      <point x="443" y="867" type="curve" smooth="yes"/>
      <point x="563" y="867"/>
      <point x="588" y="720"/>
      <point x="588" y="555" type="curve" smooth="yes"/>
      <point x="588" y="527" type="line" smooth="yes"/>
      <point x="588" y="365"/>
      <point x="562" y="215"/>
      <point x="444" y="215" type="curve"/>
      <point x="363" y="215"/>
      <point x="328" y="299"/>
      <point x="328" y="404" type="curve"/>
      <point x="63" y="404" type="line"/>
      <point x="63" y="142"/>
      <point x="214" y="-20"/>
      <point x="444" y="-20" type="curve" smooth="yes"/>
      <point x="726" y="-20"/>
      <point x="872" y="220"/>
      <point x="872" y="527" type="curve" smooth="yes"/>
      <point x="872" y="555" type="line" smooth="yes"/>
      <point x="872" y="861"/>
      <point x="726" y="1102"/>
      <point x="443" y="1102" type="curve"/>
      <point x="227" y="1102"/>
      <point x="63" y="937"/>
      <point x="63" y="707" type="curve"/>
      <point x="328" y="707" type="line"/>
      <point x="328" y="804"/>
      <point x="366" y="867"/>
    </contour>
    <contour>
      <point x="682" y="634" type="line"/>
      <point x="389" y="634" type="line"/>
      <point x="389" y="456" type="line"/>
      <point x="682" y="456" type="line"/>
    </contour>
  </outline>
</glyph>
<glyph name="uni044E" format="2">
  <advance width="1437"/>
  <unicode hex="044E"/>
  <anchor x="715" y="1269" name="top"/>
  <anchor x="1417" y="1269" name="top0315"/>
  <anchor x="715" y="1269" name="parent_top"/>
  <outline>
    <contour>
      <point x="689" y="669" type="line"/>
      <point x="170" y="669" type="line"/>
      <point x="170" y="433" type="line"/>
      <point x="689" y="433" type="line"/>
    </contour>
    <contour>
      <point x="409" y="1082" type="line"/>
      <point x="125" y="1082" type="line"/>
      <point x="125" y="0" type="line"/>
      <point x="409" y="0" type="line"/>
    </contour>
    <contour>
      <point x="496" y="530" type="line"/>
      <point x="496" y="215"/>
      <point x="650" y="-20"/>
      <point x="934" y="-20" type="curve" smooth="yes"/>
      <point x="1216" y="-20"/>
      <point x="1370" y="215"/>
      <point x="1370" y="530" type="curve"/>
      <point x="1370" y="551" type="line"/>
      <point x="1370" y="866"/>
      <point x="1216" y="1102"/>
      <point x="932" y="1102" type="curve" smooth="yes"/>
      <point x="650" y="1102"/>
      <point x="496" y="866"/>
      <point x="496" y="551" type="curve"/>
    </contour>
    <contour>
      <point x="779" y="551" type="line"/>
      <point x="779" y="722"/>
      <point x="814" y="867"/>
      <point x="932" y="867" type="curve" smooth="yes"/>
      <point x="1053" y="867"/>
      <point x="1087" y="722"/>
      <point x="1087" y="551" type="curve"/>
      <point x="1087" y="530" type="line"/>
      <point x="1087" y="355"/>
      <point x="1052" y="215"/>
      <point x="934" y="215" type="curve" smooth="yes"/>
      <point x="813" y="215"/>
      <point x="779" y="355"/>
      <point x="779" y="530" type="curve"/>
    </contour>
  </outline>
</glyph>
<glyph name="uni050D" format="2">
  <advance width="958"/>
  <unicode hex="050D"/>
  <guideline x="804.0" y="0.0" angle="90.0" identifier="gltBgk8Ilp"/>
  <guideline x="1010.0" y="0.0" angle="90.0" identifier="8hJcHT0Q2N"/>
  <anchor x="475" y="1290" name="top"/>
  <anchor x="475" y="-10" name="bottom"/>
  <anchor x="938" y="1290" name="top0315"/>
  <anchor x="475" y="1290" name="parent_top"/>
  <outline>
    <contour>
      <point x="538" y="217" type="curve"/>
      <point x="402" y="217"/>
      <point x="352" y="376"/>
      <point x="352" y="520" type="curve" smooth="yes"/>
      <point x="352" y="562" type="line" smooth="yes"/>
      <point x="352" y="706"/>
      <point x="401" y="864"/>
      <point x="521" y="864" type="curve"/>
      <point x="599" y="864"/>
      <point x="668" y="843"/>
      <point x="719" y="806" type="curve"/>
      <point x="762" y="1036" type="line"/>
      <point x="711" y="1077"/>
      <point x="630" y="1102"/>
      <point x="521" y="1102" type="curve" smooth="yes"/>
      <point x="231" y="1102"/>
      <point x="69" y="850"/>
      <point x="69" y="562" type="curve" smooth="yes"/>
      <point x="69" y="520" type="line" smooth="yes"/>
      <point x="69" y="232"/>
      <point x="236" y="-21"/>
      <point x="538" y="-21" type="curve"/>
      <point x="742" y="-21"/>
      <point x="894" y="93"/>
      <point x="898" y="332" type="curve"/>
      <point x="899" y="398"/>
      <point x="887" y="471"/>
      <point x="875" y="537" type="curve"/>
      <point x="600" y="537" type="line"/>
      <point x="609" y="472"/>
      <point x="614" y="397"/>
      <point x="614" y="332" type="curve" smooth="yes"/>
      <point x="612" y="261"/>
      <point x="597" y="219"/>
    </contour>
  </outline>
</glyph>
<glyph name="uni1D12" format="2">
  <advance width="1084"/>
  <unicode hex="1D12"/>
  <outline>
    <contour>
      <point x="297" y="520" type="curve" smooth="yes"/>
      <point x="297" y="690"/>
      <point x="409" y="724"/>
      <point x="531" y="724" type="curve" smooth="yes"/>
      <point x="552" y="724" type="line" smooth="yes"/>
      <point x="671" y="724"/>
      <point x="787" y="689"/>
      <point x="787" y="522" type="curve" smooth="yes"/>
      <point x="787" y="405"/>
      <point x="720" y="342"/>
      <point x="650" y="340" type="curve"/>
      <point x="650" y="66" type="line"/>
      <point x="871" y="69"/>
      <point x="1013" y="250"/>
      <point x="1013" y="517" type="curve" smooth="yes"/>
      <point x="1013" y="850"/>
      <point x="808" y="1015"/>
      <point x="552" y="1015" type="curve" smooth="yes"/>
      <point x="531" y="1015" type="line" smooth="yes"/>
      <point x="275" y="1015"/>
      <point x="71" y="851"/>
      <point x="71" y="515" type="curve" smooth="yes"/>
      <point x="71" y="265"/>
      <point x="215" y="69"/>
      <point x="410" y="66" type="curve"/>
      <point x="410" y="340" type="line"/>
      <point x="346" y="342"/>
      <point x="297" y="415"/>
    </contour>
  </outline>
</glyph>
<glyph name="uni1D33" format="2">
  <advance width="901"/>
  <unicode hex="1D33"/>
  <outline>
    <contour>
      <point x="824" y="1215" type="line"/>
      <point x="457" y="1215" type="line"/>
      <point x="457" y="1046" type="line"/>
      <point x="628" y="1046" type="line"/>
      <point x="628" y="872" type="line"/>
      <point x="610" y="849"/>
      <point x="567" y="816"/>
      <point x="485" y="816" type="curve" smooth="yes"/>
      <point x="354" y="816"/>
      <point x="272" y="932"/>
      <point x="272" y="1155" type="curve" smooth="yes"/>
      <point x="272" y="1223" type="line" smooth="yes"/>
      <point x="272" y="1448"/>
      <point x="345" y="1560"/>
      <point x="465" y="1560" type="curve" smooth="yes"/>
      <point x="567" y="1560"/>
      <point x="617" y="1497"/>
      <point x="630" y="1388" type="curve"/>
      <point x="824" y="1388" type="line"/>
      <point x="803" y="1596"/>
      <point x="699" y="1743"/>
      <point x="460" y="1743" type="curve" smooth="yes"/>
      <point x="224" y="1743"/>
      <point x="67" y="1553"/>
      <point x="67" y="1222" type="curve" smooth="yes"/>
      <point x="67" y="1155" type="line" smooth="yes"/>
      <point x="67" y="822"/>
      <point x="236" y="635"/>
      <point x="474" y="635" type="curve" smooth="yes"/>
      <point x="678" y="635"/>
      <point x="780" y="727"/>
      <point x="824" y="787" type="curve"/>
    </contour>
  </outline>
</glyph>
<glyph name="uni1D61" format="2">
  <advance width="804"/>
  <unicode hex="1D61"/>
  <outline>
    <contour>
      <point x="741" y="1453" type="line"/>
      <point x="529" y="1453" type="line"/>
      <point x="85" y="351" type="line"/>
      <point x="291" y="351" type="line"/>
    </contour>
    <contour>
      <point x="170" y="1466" type="curve" smooth="yes"/>
      <point x="124" y="1466"/>
      <point x="96" y="1459"/>
      <point x="59" y="1449" type="curve"/>
      <point x="61" y="1281" type="line"/>
      <point x="71" y="1284"/>
      <point x="93" y="1285"/>
      <point x="103" y="1285" type="curve" smooth="yes"/>
      <point x="148" y="1285"/>
      <point x="185" y="1261"/>
      <point x="203" y="1206" type="curve" smooth="yes"/>
      <point x="427" y="586" type="line" smooth="yes"/>
      <point x="459" y="497"/>
      <point x="510" y="352"/>
      <point x="622" y="340" type="curve" smooth="yes"/>
      <point x="657" y="336"/>
      <point x="695" y="339"/>
      <point x="721" y="346" type="curve"/>
      <point x="736" y="522" type="line"/>
      <point x="725" y="521"/>
      <point x="709" y="521"/>
      <point x="698" y="523" type="curve" smooth="yes"/>
      <point x="671" y="531"/>
      <point x="646" y="569"/>
      <point x="631" y="614" type="curve" smooth="yes"/>
      <point x="386" y="1269" type="line" smooth="yes"/>
      <point x="357" y="1348"/>
      <point x="319" y="1466"/>
    </contour>
  </outline>
</glyph>
<glyph name="uni1D6E" format="2">
  <advance width="836"/>
  <unicode hex="1D6E"/>
  <anchor x="591" y="1700" name="top"/>
  <anchor x="435" y="0" name="bottom"/>
  <anchor x="816" y="1700" name="top0315"/>
  <anchor x="591" y="1700" name="parent_top"/>
  <outline>
    <contour>
      <point x="574" y="0" type="line"/>
      <point x="574" y="1176" type="line"/>
      <point x="574" y="1269"/>
      <point x="619" y="1320"/>
      <point x="700" y="1320" type="curve" smooth="yes"/>
      <point x="727" y="1320"/>
      <point x="750" y="1317"/>
      <point x="769" y="1312" type="curve"/>
      <point x="770" y="1537" type="line"/>
      <point x="731" y="1549"/>
      <point x="689" y="1557"/>
      <point x="643" y="1557" type="curve" smooth="yes"/>
      <point x="426" y="1557"/>
      <point x="290" y="1423"/>
      <point x="290" y="1176" type="curve"/>
      <point x="290" y="0" type="line"/>
    </contour>
    <contour>
      <point x="743" y="1082" type="line"/>
      <point x="160" y="1082" type="line"/>
      <point x="160" y="869" type="line"/>
      <point x="743" y="869" type="line"/>
    </contour>
    <contour>
      <point x="621" y="680" type="line"/>
      <point x="621" y="614"/>
      <point x="586" y="578"/>
      <point x="542" y="578" type="curve" smooth="yes"/>
      <point x="444" y="578"/>
      <point x="369" y="669"/>
      <point x="267" y="669" type="curve" smooth="yes"/>
      <point x="129" y="669"/>
      <point x="31" y="535"/>
      <point x="31" y="380" type="curve"/>
      <point x="221" y="370" type="line"/>
      <point x="221" y="436"/>
      <point x="255" y="473"/>
      <point x="298" y="473" type="curve" smooth="yes"/>
      <point x="401" y="473"/>
      <point x="448" y="380"/>
      <point x="573" y="380" type="curve" smooth="yes"/>
      <point x="712" y="380"/>
      <point x="811" y="509"/>
      <point x="811" y="667" type="curve"/>
    </contour>
  </outline>
</glyph>
<glyph name="uni1D71" format="2">
  <advance width="1126"/>
  <unicode hex="1D71"/>
  <anchor x="692" y="1290" name="top"/>
  <anchor x="359" y="-447" name="bottom"/>
  <anchor x="1106" y="1290" name="top0315"/>
  <anchor x="692" y="1290" name="parent_top"/>
  <outline>
    <contour>
      <point x="498" y="874" type="line"/>
      <point x="477" y="1082" type="line"/>
      <point x="216" y="1082" type="line"/>
      <point x="216" y="-416" type="line"/>
      <point x="498" y="-416" type="line"/>
    </contour>
    <contour>
      <point x="1059" y="553" type="line"/>
      <point x="1059" y="882"/>
      <point x="935" y="1102"/>
      <point x="701" y="1102" type="curve" smooth="yes"/>
      <point x="474" y="1102"/>
      <point x="381" y="873"/>
      <point x="350" y="556" type="curve"/>
      <point x="350" y="515" type="line"/>
      <point x="384" y="217"/>
      <point x="475" y="-20"/>
      <point x="703" y="-20" type="curve" smooth="yes"/>
      <point x="934" y="-20"/>
      <point x="1059" y="217"/>
      <point x="1059" y="532" type="curve" smooth="yes"/>
    </contour>
    <contour>
      <point x="776" y="532" type="line"/>
      <point x="776" y="358"/>
      <point x="739" y="215"/>
      <point x="627" y="215" type="curve" smooth="yes"/>
      <point x="507" y="215"/>
      <point x="470" y="324"/>
      <point x="466" y="473" type="curve"/>
      <point x="466" y="597" type="line"/>
      <point x="469" y="766"/>
      <point x="515" y="866"/>
      <point x="625" y="866" type="curve" smooth="yes"/>
      <point x="736" y="866"/>
      <point x="776" y="731"/>
      <point x="776" y="553" type="curve" smooth="yes"/>
    </contour>
    <contour>
      <point x="563" y="-54" type="line"/>
      <point x="563" y="-119"/>
      <point x="527" y="-156"/>
      <point x="484" y="-156" type="curve" smooth="yes"/>
      <point x="385" y="-156"/>
      <point x="311" y="-64"/>
      <point x="209" y="-64" type="curve" smooth="yes"/>
      <point x="71" y="-64"/>
      <point x="-28" y="-198"/>
      <point x="-28" y="-353" type="curve"/>
      <point x="163" y="-363" type="line"/>
      <point x="163" y="-297"/>
      <point x="196" y="-261"/>
      <point x="240" y="-261" type="curve" smooth="yes"/>
      <point x="343" y="-261"/>
      <point x="389" y="-353"/>
      <point x="515" y="-353" type="curve" smooth="yes"/>
      <point x="653" y="-353"/>
      <point x="752" y="-224"/>
      <point x="752" y="-66" type="curve"/>
    </contour>
  </outline>
</glyph>
<glyph name="uni1D92" format="2">
  <advance width="1110"/>
  <unicode hex="1D92"/>
  <anchor x="523" y="1290" name="top"/>
  <anchor x="523" y="-447" name="bottom"/>
  <anchor x="1047" y="1290" name="top0315"/>
  <anchor x="523" y="1290" name="parent_top"/>
  <outline>
    <contour>
      <point x="793" y="313" type="line"/>
      <point x="793" y="-78" type="line" smooth="yes"/>
      <point x="793" y="-300"/>
      <point x="886" y="-421"/>
      <point x="1057" y="-421" type="curve" smooth="yes"/>
      <point x="1093" y="-421"/>
      <point x="1127" y="-418"/>
      <point x="1163" y="-406" type="curve"/>
      <point x="1165" y="-211" type="line"/>
      <point x="1143" y="-215"/>
      <point x="1126" y="-218"/>
      <point x="1107" y="-218" type="curve" smooth="yes"/>
      <point x="1051" y="-218"/>
      <point x="1000" y="-189"/>
      <point x="1000" y="-78" type="curve" smooth="yes"/>
      <point x="1000" y="313" type="line"/>
    </contour>
    <contour>
      <point x="538" y="-20" type="curve"/>
      <point x="723" y="-20"/>
      <point x="847" y="65"/>
      <point x="905" y="142" type="curve"/>
      <point x="793" y="313" type="line"/>
      <point x="735" y="252"/>
      <point x="656" y="215"/>
      <point x="557" y="215" type="curve" smooth="yes"/>
      <point x="428" y="215"/>
      <point x="359" y="282"/>
      <point x="359" y="479" type="curve" smooth="yes"/>
      <point x="359" y="568" type="line" smooth="yes"/>
      <point x="359" y="779"/>
      <point x="394" y="867"/>
      <point x="508" y="867" type="curve"/>
      <point x="606" y="867"/>
      <point x="641" y="801"/>
      <point x="643" y="670" type="curve"/>
      <point x="643" y="645" type="line"/>
      <point x="195" y="645" type="line"/>
      <point x="195" y="447" type="line"/>
      <point x="921" y="447" type="line"/>
      <point x="921" y="576" type="line" smooth="yes"/>
      <point x="921" y="922"/>
      <point x="782" y="1102"/>
      <point x="509" y="1102" type="curve" smooth="yes"/>
      <point x="237" y="1102"/>
      <point x="76" y="919"/>
      <point x="76" y="568" type="curve" smooth="yes"/>
      <point x="76" y="479" type="line" smooth="yes"/>
      <point x="76" y="166"/>
      <point x="243" y="-20"/>
    </contour>
  </outline>
</glyph>
<glyph name="uni1DB7" format="2">
  <advance width="898"/>
  <unicode hex="1DB7"/>
  <outline>
    <contour>
      <point x="446" y="825" type="curve" smooth="yes"/>
      <point x="325" y="825"/>
      <point x="292" y="916"/>
      <point x="292" y="994" type="curve" smooth="yes"/>
      <point x="292" y="1096"/>
      <point x="373" y="1173"/>
      <point x="373" y="1279" type="curve" smooth="yes"/>
      <point x="373" y="1374"/>
      <point x="322" y="1455"/>
      <point x="98" y="1455" type="curve"/>
      <point x="98" y="1280" type="line"/>
      <point x="135" y="1280"/>
      <point x="169" y="1266"/>
      <point x="169" y="1229" type="curve" smooth="yes"/>
      <point x="169" y="1168"/>
      <point x="94" y="1102"/>
      <point x="94" y="963" type="curve" smooth="yes"/>
      <point x="94" y="827"/>
      <point x="162" y="640"/>
      <point x="446" y="640" type="curve" smooth="yes"/>
      <point x="730" y="640"/>
      <point x="798" y="827"/>
      <point x="798" y="963" type="curve" smooth="yes"/>
      <point x="798" y="1102"/>
      <point x="724" y="1168"/>
      <point x="724" y="1229" type="curve" smooth="yes"/>
      <point x="724" y="1266"/>
      <point x="758" y="1280"/>
      <point x="794" y="1280" type="curve"/>
      <point x="794" y="1455" type="line"/>
      <point x="572" y="1455"/>
      <point x="520" y="1374"/>
      <point x="520" y="1279" type="curve" smooth="yes"/>
      <point x="520" y="1173"/>
      <point x="600" y="1096"/>
      <point x="600" y="994" type="curve" smooth="yes"/>
      <point x="600" y="916"/>
      <point x="567" y="825"/>
    </contour>
  </outline>
</glyph>
<glyph name="uni1FED" format="2">
  <advance width="909"/>
  <unicode hex="1FED"/>
  <outline>
    <contour>
      <point x="115" y="1338" type="curve" smooth="yes"/>
      <point x="115" y="1266"/>
      <point x="168" y="1211"/>
      <point x="253" y="1211" type="curve" smooth="yes"/>
      <point x="337" y="1211"/>
      <point x="390" y="1266"/>
      <point x="390" y="1338" type="curve" smooth="yes"/>
      <point x="390" y="1409"/>
      <point x="337" y="1465"/>
      <point x="253" y="1465" type="curve" smooth="yes"/>
      <point x="168" y="1465"/>
      <point x="115" y="1409"/>
    </contour>
    <contour>
      <point x="519" y="1337" type="curve" smooth="yes"/>
      <point x="519" y="1266"/>
      <point x="572" y="1210"/>
      <point x="657" y="1210" type="curve" smooth="yes"/>
      <point x="741" y="1210"/>
      <point x="795" y="1266"/>
      <point x="795" y="1337" type="curve" smooth="yes"/>
      <point x="795" y="1409"/>
      <point x="741" y="1465"/>
      <point x="657" y="1465" type="curve" smooth="yes"/>
      <point x="572" y="1465"/>
      <point x="519" y="1409"/>
    </contour>
    <contour>
      <point x="455" y="1648" type="line"/>
      <point x="256" y="1648" type="line"/>
      <point x="378" y="1454" type="line"/>
      <point x="526" y="1454" type="line"/>
    </contour>
  </outline>
</glyph>
<glyph name="quotesinglbase" format="2">
  <advance width="503"/>
  <unicode hex="201A"/>
  <guideline x="0.0" y="901.0" angle="0.0" identifier="xvvBbbQMHb"/>
  <guideline x="0.0" y="555.0" angle="0.0" identifier="J80eA4eyn1"/>
  <outline>
    <contour>
      <point x="377" y="231" type="line"/>
      <point x="146" y="231" type="line"/>
      <point x="146" y="66" type="line"/>
      <point x="146" y="-59"/>
      <point x="119" y="-147"/>
      <point x="80" y="-227" type="curve"/>
      <point x="210" y="-306" type="line"/>
      <point x="300" y="-219"/>
      <point x="376" y="-65"/>
      <point x="376" y="66" type="curve"/>
    </contour>
  </outline>
</glyph>
<glyph name="uni2054" format="2">
  <advance width="1403"/>
  <unicode hex="2054"/>
  <outline>
    <contour>
      <point x="701" y="-115" type="curve" smooth="yes"/>
      <point x="361" y="-115"/>
      <point x="144" y="-230"/>
      <point x="20" y="-388" type="curve"/>
      <point x="131" y="-488" type="line"/>
      <point x="242" y="-410"/>
      <point x="432" y="-341"/>
      <point x="701" y="-341" type="curve" smooth="yes"/>
      <point x="972" y="-341"/>
      <point x="1179" y="-417"/>
      <point x="1289" y="-490" type="curve"/>
      <point x="1384" y="-388" type="line"/>
      <point x="1290" y="-242"/>
      <point x="1043" y="-115"/>
    </contour>
  </outline>
</glyph>
<glyph name="uni20B7" format="2">
  <advance width="1243"/>
  <unicode hex="20B7"/>
  <outline>
    <contour>
      <point x="187" y="204" type="line"/>
      <point x="187" y="292"/>
      <point x="208" y="360"/>
      <point x="274" y="360" type="curve" smooth="yes"/>
      <point x="318" y="360"/>
      <point x="344" y="323"/>
      <point x="344" y="216" type="curve" smooth="yes"/>
      <point x="344" y="-119" type="line"/>
      <point x="497" y="-119" type="line"/>
      <point x="497" y="266" type="line" smooth="yes"/>
      <point x="497" y="431"/>
      <point x="436" y="500"/>
      <point x="332" y="500" type="curve" smooth="yes"/>
      <point x="219" y="500"/>
      <point x="158" y="375"/>
      <point x="158" y="203" type="curve"/>
    </contour>
    <contour>
      <point x="204" y="360" type="line"/>
      <point x="171" y="491" type="line"/>
      <point x="50" y="491" type="line"/>
      <point x="50" y="-119" type="line"/>
      <point x="204" y="-119" type="line"/>
    </contour>
    <contour>
      <point x="458" y="205" type="line"/>
      <point x="458" y="292"/>
      <point x="501" y="360"/>
      <point x="566" y="360" type="curve" smooth="yes"/>
      <point x="611" y="360"/>
      <point x="636" y="323"/>
      <point x="636" y="216" type="curve" smooth="yes"/>
      <point x="636" y="-119" type="line"/>
      <point x="790" y="-119" type="line"/>
      <point x="790" y="266" type="line" smooth="yes"/>
      <point x="790" y="431"/>
      <point x="729" y="500"/>
      <point x="624" y="500" type="curve" smooth="yes"/>
      <point x="512" y="500"/>
      <point x="450" y="375"/>
      <point x="450" y="203" type="curve"/>
    </contour>
    <contour>
      <point x="877" y="382" type="curve" smooth="yes"/>
      <point x="877" y="267"/>
      <point x="808" y="217"/>
      <point x="671" y="218" type="curve" smooth="yes"/>
      <point x="496" y="219"/>
      <point x="296" y="253"/>
      <point x="164" y="393" type="curve"/>
      <point x="59" y="299" type="line"/>
      <point x="161" y="82"/>
      <point x="423" y="-20"/>
      <point x="671" y="-20" type="curve" smooth="yes"/>
      <point x="996" y="-20"/>
      <point x="1171" y="121"/>
      <point x="1171" y="384" type="curve" smooth="yes"/>
      <point x="1171" y="635"/>
      <point x="1024" y="764"/>
      <point x="764" y="859" type="curve" smooth="yes"/>
      <point x="659" y="908"/>
      <point x="549" y="963"/>
      <point x="549" y="1070" type="curve" smooth="yes"/>
      <point x="549" y="1160"/>
      <point x="602" y="1236"/>
      <point x="707" y="1236" type="curve" smooth="yes"/>
      <point x="828" y="1236"/>
      <point x="880" y="1152"/>
      <point x="880" y="1027" type="curve"/>
      <point x="1173" y="1027" type="line"/>
      <point x="1173" y="1284"/>
      <point x="1003" y="1476"/>
      <point x="711" y="1476" type="curve" smooth="yes"/>
      <point x="442" y="1476"/>
      <point x="255" y="1313"/>
      <point x="255" y="1070" type="curve" smooth="yes"/>
      <point x="255" y="819"/>
      <point x="443" y="696"/>
      <point x="695" y="602" type="curve" smooth="yes"/>
      <point x="827" y="543"/>
      <point x="877" y="490"/>
    </contour>
  </outline>
</glyph>
<glyph name="degreefarenheit" format="2">
  <advance width="1472"/>
  <unicode hex="2109"/>
  <outline>
    <contour>
      <point x="47" y="1200" type="curve"/>
      <point x="47" y="1049"/>
      <point x="154" y="928"/>
      <point x="282" y="928" type="curve" smooth="yes"/>
      <point x="409" y="928"/>
      <point x="513" y="1049"/>
      <point x="513" y="1200" type="curve" smooth="yes"/>
      <point x="513" y="1351"/>
      <point x="409" y="1476"/>
      <point x="282" y="1476" type="curve" smooth="yes"/>
      <point x="154" y="1476"/>
      <point x="47" y="1351"/>
    </contour>
    <contour>
      <point x="185" y="1200" type="curve"/>
      <point x="185" y="1273"/>
      <point x="231" y="1328"/>
      <point x="282" y="1328" type="curve" smooth="yes"/>
      <point x="334" y="1328"/>
      <point x="375" y="1273"/>
      <point x="375" y="1200" type="curve" smooth="yes"/>
      <point x="375" y="1128"/>
      <point x="334" y="1076"/>
      <point x="282" y="1076" type="curve" smooth="yes"/>
      <point x="231" y="1076"/>
      <point x="185" y="1129"/>
    </contour>
    <contour>
      <point x="890" y="1456" type="line"/>
      <point x="596" y="1456" type="line"/>
      <point x="596" y="0" type="line"/>
      <point x="890" y="0" type="line"/>
    </contour>
    <contour>
      <point x="1346" y="838" type="line"/>
      <point x="816" y="838" type="line"/>
      <point x="816" y="594" type="line"/>
      <point x="1346" y="594" type="line"/>
    </contour>
    <contour>
      <point x="1401" y="1456" type="line"/>
      <point x="816" y="1456" type="line"/>
      <point x="816" y="1211" type="line"/>
      <point x="1401" y="1211" type="line"/>
    </contour>
  </outline>
</glyph>
<glyph name="uni2C72" format="2">
  <advance width="1741"/>
  <unicode hex="2C72"/>
  <outline>
    <contour>
      <point x="421" y="251" type="line"/>
      <point x="428" y="0" type="line"/>
      <point x="600" y="0" type="line"/>
      <point x="844" y="1244" type="line"/>
      <point x="807" y="1456" type="line"/>
      <point x="646" y="1456" type="line"/>
    </contour>
    <contour>
      <point x="337" y="1456" type="line"/>
      <point x="45" y="1456" type="line"/>
      <point x="305" y="0" type="line"/>
      <point x="492" y="0" type="line"/>
      <point x="519" y="246" type="line"/>
    </contour>
    <contour>
      <point x="1021" y="251" type="line"/>
      <point x="1051" y="0" type="line"/>
      <point x="1232" y="0" type="line"/>
      <point x="1413" y="1043" type="line" smooth="yes"/>
      <point x="1433" y="1164"/>
      <point x="1456" y="1193"/>
      <point x="1494" y="1193" type="curve" smooth="yes"/>
      <point x="1538" y="1193"/>
      <point x="1576" y="1165"/>
      <point x="1612" y="1132" type="curve"/>
      <point x="1716" y="1343" type="line"/>
      <point x="1646" y="1413"/>
      <point x="1546" y="1477"/>
      <point x="1445" y="1477" type="curve" smooth="yes"/>
      <point x="1273" y="1477"/>
      <point x="1187" y="1358"/>
      <point x="1141" y="1083" type="curve" smooth="yes"/>
    </contour>
    <contour>
      <point x="892" y="1456" type="line"/>
      <point x="738" y="1456" type="line"/>
      <point x="694" y="1245" type="line"/>
      <point x="937" y="0" type="line"/>
      <point x="1114" y="0" type="line"/>
      <point x="1117" y="246" type="line"/>
    </contour>
  </outline>
</glyph>
<glyph name="uni2C79" format="2">
  <advance width="705"/>
  <unicode hex="2C79"/>
  <guideline x="0.0" y="1557.0" angle="0.0" identifier="Rdvw4ONFbQ"/>
  <outline>
    <contour>
      <point x="593" y="1014" type="line"/>
      <point x="593" y="1213" type="line" smooth="yes"/>
      <point x="593" y="1503"/>
      <point x="396" y="1557"/>
      <point x="253" y="1557" type="curve" smooth="yes"/>
      <point x="198" y="1557"/>
      <point x="155" y="1552"/>
      <point x="119" y="1542" type="curve"/>
      <point x="117" y="1347" type="line"/>
      <point x="139" y="1351"/>
      <point x="156" y="1354"/>
      <point x="175" y="1354" type="curve" smooth="yes"/>
      <point x="231" y="1354"/>
      <point x="310" y="1325"/>
      <point x="310" y="1213" type="curve" smooth="yes"/>
      <point x="310" y="1014" type="line"/>
    </contour>
    <contour>
      <point x="310" y="243" type="line"/>
      <point x="327" y="0" type="line"/>
      <point x="593" y="0" type="line"/>
      <point x="593" y="1082" type="line"/>
      <point x="310" y="1082" type="line"/>
    </contour>
    <contour>
      <point x="56" y="-8" type="line"/>
      <point x="75" y="-15"/>
      <point x="109" y="-20"/>
      <point x="134" y="-20" type="curve"/>
      <point x="293" y="-20"/>
      <point x="384" y="185"/>
      <point x="384" y="466" type="curve"/>
      <point x="332" y="488" type="line"/>
      <point x="327" y="344"/>
      <point x="274" y="265"/>
      <point x="153" y="265" type="curve"/>
      <point x="125" y="265"/>
      <point x="85" y="269"/>
      <point x="59" y="273" type="curve"/>
    </contour>
  </outline>
</glyph>
<glyph name="uni2E10" format="2">
  <advance width="1260"/>
  <unicode hex="2E10"/>
  <outline>
    <contour>
      <point x="1197" y="-144" type="line"/>
      <point x="68" y="-144" type="line"/>
      <point x="68" y="-314" type="line"/>
      <point x="1197" y="-314" type="line"/>
    </contour>
    <contour>
      <point x="502" y="-171" type="line"/>
      <point x="133" y="-384" type="line"/>
      <point x="212" y="-528" type="line"/>
      <point x="566" y="-293" type="line"/>
    </contour>
  </outline>
</glyph>
<glyph name="uni2E12" format="2">
  <advance width="426"/>
  <unicode hex="2E12"/>
  <outline>
    <contour>
      <point x="87" y="74" type="line"/>
      <point x="144" y="74"/>
      <point x="165" y="40"/>
      <point x="165" y="-38" type="curve" smooth="yes"/>
      <point x="165" y="-106"/>
      <point x="144" y="-143"/>
      <point x="87" y="-143" type="curve"/>
      <point x="87" y="-317" type="line"/>
      <point x="220" y="-317"/>
      <point x="339" y="-237"/>
      <point x="339" y="-38" type="curve" smooth="yes"/>
      <point x="339" y="163"/>
      <point x="220" y="248"/>
      <point x="87" y="248" type="curve"/>
    </contour>
  </outline>
</glyph>
<glyph name="uni2E2E" format="2">
  <advance width="918"/>
  <unicode hex="2E2E"/>
  <outline>
    <contour>
      <point x="575" y="434" type="line"/>
      <point x="575" y="614"/>
      <point x="547" y="713"/>
      <point x="454" y="816" type="curve" smooth="yes"/>
      <point x="398" y="890"/>
      <point x="356" y="953"/>
      <point x="356" y="1056" type="curve" smooth="yes"/>
      <point x="356" y="1173"/>
      <point x="393" y="1239"/>
      <point x="465" y="1239" type="curve" smooth="yes"/>
      <point x="517" y="1239"/>
      <point x="579" y="1189"/>
      <point x="580" y="1069" type="curve"/>
      <point x="864" y="1069" type="line"/>
      <point x="861" y="1349"/>
      <point x="689" y="1476"/>
      <point x="465" y="1476" type="curve" smooth="yes"/>
      <point x="219" y="1476"/>
      <point x="72" y="1333"/>
      <point x="72" y="1069" type="curve" smooth="yes"/>
      <point x="72" y="898"/>
      <point x="153" y="794"/>
      <point x="245" y="682" type="curve" smooth="yes"/>
      <point x="304" y="610"/>
      <point x="324" y="538"/>
      <point x="326" y="434" type="curve"/>
    </contour>
    <contour>
      <point x="610" y="142" type="curve" smooth="yes"/>
      <point x="610" y="230"/>
      <point x="550" y="297"/>
      <point x="456" y="297" type="curve" smooth="yes"/>
      <point x="361" y="297"/>
      <point x="301" y="230"/>
      <point x="301" y="142" type="curve" smooth="yes"/>
      <point x="301" y="55"/>
      <point x="361" y="-12"/>
      <point x="456" y="-12" type="curve" smooth="yes"/>
      <point x="550" y="-12"/>
      <point x="610" y="55"/>
    </contour>
  </outline>
</glyph>
<glyph name="uniA67D" format="2">
  <unicode hex="A67D"/>
  <anchor x="-465" y="1170" name="_top"/>
  <outline>
    <contour>
      <point x="-720" y="1508" type="line"/>
      <point x="-732" y="1319"/>
      <point x="-606" y="1222"/>
      <point x="-467" y="1222" type="curve" smooth="yes"/>
      <point x="-380" y="1222"/>
      <point x="-301" y="1278"/>
      <point x="-271" y="1344" type="curve"/>
      <point x="-352" y="1400" type="line"/>
      <point x="-383" y="1381"/>
      <point x="-407" y="1364"/>
      <point x="-453" y="1364" type="curve" smooth="yes"/>
      <point x="-539" y="1364"/>
      <point x="-560" y="1430"/>
      <point x="-558" y="1508" type="curve"/>
    </contour>
    <contour>
      <point x="-208" y="1453" type="line"/>
      <point x="-361" y="1453" type="line"/>
      <point x="-436" y="1129" type="line"/>
      <point x="-284" y="1129" type="line"/>
    </contour>
  </outline>
</glyph>
<glyph name="uniA68B" format="2">
  <advance width="1236"/>
  <unicode hex="A68B"/>
  <outline>
    <contour>
      <point x="605" y="1066" type="line"/>
      <point x="321" y="1066" type="line"/>
      <point x="321" y="0" type="line"/>
      <point x="605" y="0" type="line"/>
    </contour>
    <contour>
      <point x="883" y="1082" type="line"/>
      <point x="45" y="1082" type="line"/>
      <point x="45" y="849" type="line"/>
      <point x="883" y="849" type="line"/>
    </contour>
    <contour>
      <point x="562" y="211" type="line"/>
      <point x="560" y="375"/>
      <point x="603" y="499"/>
      <point x="723" y="499" type="curve" smooth="yes"/>
      <point x="806" y="499"/>
      <point x="849" y="447"/>
      <point x="849" y="272" type="curve" smooth="yes"/>
      <point x="849" y="0" type="line"/>
      <point x="1132" y="0" type="line"/>
      <point x="1132" y="270" type="line" smooth="yes"/>
      <point x="1132" y="601"/>
      <point x="1008" y="735"/>
      <point x="830" y="735" type="curve" smooth="yes"/>
      <point x="620" y="735"/>
      <point x="482" y="513"/>
      <point x="487" y="209" type="curve"/>
    </contour>
    <contour>
      <point x="849" y="119" type="line"/>
      <point x="849" y="-80" type="line" smooth="yes"/>
      <point x="849" y="-192"/>
      <point x="773" y="-228"/>
      <point x="720" y="-228" type="curve" smooth="yes"/>
      <point x="701" y="-228"/>
      <point x="674" y="-225"/>
      <point x="651" y="-220" type="curve"/>
      <point x="650" y="-421" type="line"/>
      <point x="689" y="-432"/>
      <point x="729" y="-436"/>
      <point x="788" y="-436" type="curve" smooth="yes"/>
      <point x="940" y="-436"/>
      <point x="1132" y="-378"/>
      <point x="1132" y="-80" type="curve" smooth="yes"/>
      <point x="1132" y="119" type="line"/>
    </contour>
  </outline>
</glyph>
<glyph name="uniA695" format="2">
  <advance width="1014"/>
  <unicode hex="A695"/>
  <outline>
    <contour>
      <point x="381" y="1160" type="line"/>
      <point x="98" y="1160" type="line"/>
      <point x="98" y="0" type="line"/>
      <point x="381" y="0" type="line"/>
    </contour>
    <contour>
      <point x="340" y="578" type="line"/>
      <point x="338" y="741"/>
      <point x="381" y="866"/>
      <point x="501" y="866" type="curve" smooth="yes"/>
      <point x="584" y="866"/>
      <point x="627" y="814"/>
      <point x="627" y="639" type="curve" smooth="yes"/>
      <point x="627" y="0" type="line"/>
      <point x="910" y="0" type="line"/>
      <point x="910" y="637" type="line" smooth="yes"/>
      <point x="910" y="967"/>
      <point x="786" y="1102"/>
      <point x="608" y="1102" type="curve" smooth="yes"/>
      <point x="398" y="1102"/>
      <point x="260" y="880"/>
      <point x="265" y="576" type="curve"/>
    </contour>
    <contour>
      <point x="381" y="1021" type="line"/>
      <point x="381" y="1220" type="line" smooth="yes"/>
      <point x="381" y="1331"/>
      <point x="457" y="1368"/>
      <point x="510" y="1368" type="curve" smooth="yes"/>
      <point x="536" y="1368"/>
      <point x="555" y="1364"/>
      <point x="579" y="1359" type="curve"/>
      <point x="581" y="1560" type="line"/>
      <point x="542" y="1571"/>
      <point x="501" y="1576"/>
      <point x="443" y="1576" type="curve" smooth="yes"/>
      <point x="290" y="1576"/>
      <point x="98" y="1517"/>
      <point x="98" y="1220" type="curve" smooth="yes"/>
      <point x="98" y="1021" type="line"/>
    </contour>
  </outline>
</glyph>
<glyph name="uniA703" format="2">
  <advance width="561"/>
  <unicode hex="A703"/>
  <outline>
    <contour>
      <point x="470" y="863" type="line"/>
      <point x="116" y="863" type="line"/>
      <point x="116" y="737" type="line"/>
      <point x="470" y="737" type="line"/>
    </contour>
    <contour>
      <point x="470" y="922" type="line"/>
      <point x="470" y="1048" type="line"/>
      <point x="319" y="1048" type="line" smooth="yes"/>
      <point x="259" y="1048"/>
      <point x="236" y="1116"/>
      <point x="236" y="1201" type="curve" smooth="yes"/>
      <point x="236" y="1215" type="line" smooth="yes"/>
      <point x="236" y="1297"/>
      <point x="261" y="1368"/>
      <point x="319" y="1368" type="curve" smooth="yes"/>
      <point x="470" y="1368" type="line"/>
      <point x="470" y="1494" type="line"/>
      <point x="322" y="1494" type="line" smooth="yes"/>
      <point x="172" y="1494"/>
      <point x="86" y="1371"/>
      <point x="86" y="1215" type="curve" smooth="yes"/>
      <point x="86" y="1201" type="line" smooth="yes"/>
      <point x="86" y="1044"/>
      <point x="171" y="922"/>
      <point x="322" y="922" type="curve" smooth="yes"/>
    </contour>
  </outline>
</glyph>
<glyph name="uniA71D" format="2">
  <advance width="432"/>
  <unicode hex="A71D"/>
  <guideline x="499.0" y="0.0" angle="90.0" identifier="3sbkLMp6Fn"/>
  <outline>
    <contour>
      <point x="331" y="1723" type="line"/>
      <point x="103" y="1723" type="line"/>
      <point x="128" y="967" type="line"/>
      <point x="305" y="967" type="line"/>
    </contour>
    <contour>
      <point x="101" y="754" type="curve" smooth="yes"/>
      <point x="101" y="688"/>
      <point x="145" y="637"/>
      <point x="216" y="637" type="curve" smooth="yes"/>
      <point x="286" y="637"/>
      <point x="331" y="688"/>
      <point x="331" y="754" type="curve" smooth="yes"/>
      <point x="331" y="821"/>
      <point x="286" y="872"/>
      <point x="216" y="872" type="curve" smooth="yes"/>
      <point x="145" y="872"/>
      <point x="101" y="821"/>
    </contour>
  </outline>
</glyph>
<glyph name="uniA753" format="2">
  <advance width="1354"/>
  <unicode hex="A753"/>
  <outline>
    <contour>
      <point x="76" y="-215" type="curve"/>
      <point x="290" y="-215" type="line"/>
      <point x="287" y="-180"/>
      <point x="281" y="-117"/>
      <point x="281" y="-61" type="curve" smooth="yes"/>
      <point x="281" y="61"/>
      <point x="310" y="141"/>
      <point x="373" y="141" type="curve" smooth="yes"/>
      <point x="405" y="141"/>
      <point x="436" y="127"/>
      <point x="487" y="101" type="curve"/>
      <point x="540" y="324" type="line"/>
      <point x="449" y="368"/>
      <point x="393" y="388"/>
      <point x="324" y="388" type="curve" smooth="yes"/>
      <point x="186" y="388"/>
      <point x="51" y="248"/>
      <point x="51" y="-7" type="curve" smooth="yes"/>
      <point x="51" y="-70"/>
      <point x="60" y="-163"/>
    </contour>
    <contour>
      <point x="727" y="874" type="line"/>
      <point x="706" y="1082" type="line"/>
      <point x="444" y="1082" type="line"/>
      <point x="444" y="-416" type="line"/>
      <point x="727" y="-416" type="line"/>
    </contour>
    <contour>
      <point x="518" y="92" type="line"/>
      <point x="597" y="38"/>
      <point x="731" y="-20"/>
      <point x="891" y="-20" type="curve" smooth="yes"/>
      <point x="1165" y="-20"/>
      <point x="1287" y="217"/>
      <point x="1287" y="532" type="curve" smooth="yes"/>
      <point x="1287" y="553" type="line" smooth="yes"/>
      <point x="1287" y="882"/>
      <point x="1163" y="1102"/>
      <point x="930" y="1102" type="curve" smooth="yes"/>
      <point x="702" y="1102"/>
      <point x="610" y="873"/>
      <point x="578" y="556" type="curve"/>
    </contour>
    <contour>
      <point x="609" y="298" type="curve"/>
      <point x="694" y="597" type="line"/>
      <point x="697" y="766"/>
      <point x="743" y="866"/>
      <point x="853" y="866" type="curve" smooth="yes"/>
      <point x="965" y="866"/>
      <point x="1004" y="731"/>
      <point x="1004" y="553" type="curve" smooth="yes"/>
      <point x="1004" y="532" type="line" smooth="yes"/>
      <point x="1004" y="358"/>
      <point x="968" y="215"/>
      <point x="834" y="215" type="curve" smooth="yes"/>
      <point x="732" y="215"/>
      <point x="664" y="265"/>
    </contour>
  </outline>
</glyph>
<glyph name="uniA77F" format="2">
  <advance width="979"/>
  <unicode hex="A77F"/>
  <outline>
    <contour>
      <point x="705" y="-337" type="line"/>
      <point x="778" y="-268"/>
      <point x="839" y="-167"/>
      <point x="839" y="-21" type="curve" smooth="yes"/>
      <point x="839" y="181"/>
      <point x="724" y="329"/>
      <point x="504" y="469" type="curve" smooth="yes"/>
      <point x="377" y="561"/>
      <point x="341" y="650"/>
      <point x="341" y="735" type="curve" smooth="yes"/>
      <point x="341" y="846"/>
      <point x="383" y="896"/>
      <point x="443" y="896" type="curve" smooth="yes"/>
      <point x="521" y="896"/>
      <point x="553" y="836"/>
      <point x="553" y="753" type="curve"/>
      <point x="836" y="753" type="line"/>
      <point x="836" y="956"/>
      <point x="686" y="1102"/>
      <point x="444" y="1102" type="curve" smooth="yes"/>
      <point x="210" y="1102"/>
      <point x="70" y="961"/>
      <point x="70" y="733" type="curve" smooth="yes"/>
      <point x="70" y="503"/>
      <point x="203" y="381"/>
      <point x="359" y="274" type="curve" smooth="yes"/>
      <point x="518" y="161"/>
      <point x="564" y="87"/>
      <point x="564" y="-36" type="curve" smooth="yes"/>
      <point x="564" y="-127"/>
      <point x="541" y="-191"/>
      <point x="501" y="-232" type="curve"/>
    </contour>
    <contour>
      <point x="893" y="-184" type="line"/>
      <point x="68" y="-184" type="line"/>
      <point x="68" y="-417" type="line"/>
      <point x="893" y="-417" type="line"/>
    </contour>
  </outline>
</glyph>
<glyph name="uniAB3B" format="2">
  <advance width="1236"/>
  <unicode hex="AB3B"/>
  <outline>
    <contour>
      <point x="1199" y="535" type="curve"/>
      <point x="662" y="535" type="line" smooth="yes"/>
      <point x="521" y="535"/>
      <point x="417" y="429"/>
      <point x="417" y="260" type="curve" smooth="yes"/>
      <point x="417" y="94"/>
      <point x="506" y="-20"/>
      <point x="681" y="-20" type="curve" smooth="yes"/>
      <point x="913" y="-20"/>
      <point x="984" y="153"/>
      <point x="984" y="357" type="curve" smooth="yes"/>
      <point x="984" y="630" type="line"/>
      <point x="701" y="630" type="line"/>
      <point x="701" y="283" type="line" smooth="yes"/>
      <point x="701" y="215"/>
      <point x="698" y="172"/>
      <point x="676" y="172" type="curve" smooth="yes"/>
      <point x="656" y="172"/>
      <point x="644" y="200"/>
      <point x="644" y="250" type="curve" smooth="yes"/>
      <point x="644" y="304"/>
      <point x="658" y="331"/>
      <point x="679" y="331" type="curve" smooth="yes"/>
      <point x="1199" y="331" type="line"/>
      <point x="1199" y="331"/>
      <point x="1199" y="535"/>
    </contour>
    <contour>
      <point x="388" y="851" type="line"/>
      <point x="368" y="1082" type="line"/>
      <point x="105" y="1082" type="line"/>
      <point x="105" y="0" type="line"/>
      <point x="388" y="0" type="line"/>
    </contour>
    <contour>
      <point x="359" y="578" type="line"/>
      <point x="358" y="741"/>
      <point x="430" y="866"/>
      <point x="553" y="866" type="curve" smooth="yes"/>
      <point x="640" y="866"/>
      <point x="701" y="825"/>
      <point x="701" y="681" type="curve" smooth="yes"/>
      <point x="701" y="570" type="line"/>
      <point x="984" y="570" type="line"/>
      <point x="984" y="681" type="line" smooth="yes"/>
      <point x="984" y="991"/>
      <point x="843" y="1102"/>
      <point x="659" y="1102" type="curve" smooth="yes"/>
      <point x="401" y="1102"/>
      <point x="265" y="880"/>
      <point x="269" y="576" type="curve"/>
    </contour>
  </outline>
</glyph>
<glyph name="W.smcp" format="2">
  <advance width="1318"/>
  <anchor x="649" y="1320" name="top"/>
  <anchor x="649" y="10" name="bottom"/>
  <anchor x="1298" y="1600" name="top_dd"/>
  <anchor x="1298" y="-407" name="bottom_dd"/>
  <anchor x="1298" y="1320" name="top0315"/>
  <anchor x="649" y="1320" name="parent_top"/>
  <outline>
    <contour>
      <point x="346" y="119" type="line"/>
      <point x="387" y="0" type="line"/>
      <point x="540" y="0" type="line"/>
      <point x="731" y="1021" type="line"/>
      <point x="675" y="1165" type="line"/>
      <point x="533" y="1165" type="line"/>
    </contour>
    <contour>
      <point x="314" y="1165" type="line"/>
      <point x="43" y="1165" type="line"/>
      <point x="258" y="0" type="line"/>
      <point x="424" y="0" type="line"/>
      <point x="467" y="124" type="line"/>
    </contour>
    <contour>
      <point x="848" y="124" type="line"/>
      <point x="893" y="0" type="line"/>
      <point x="1058" y="0" type="line"/>
      <point x="1272" y="1165" type="line"/>
      <point x="1002" y="1165" type="line"/>
    </contour>
    <contour>
      <point x="781" y="1165" type="line"/>
      <point x="639" y="1165" type="line"/>
      <point x="580" y="1021" type="line"/>
      <point x="776" y="0" type="line"/>
      <point x="930" y="0" type="line"/>
      <point x="973" y="118" type="line"/>
    </contour>
  </outline>
</glyph>
<glyph name="commaaboverightcomb" format="2">
  <outline>
    <contour>
      <point x="72" y="1590" type="line"/>
      <point x="-165" y="1590" type="line"/>
      <point x="-165" y="1392" type="line" smooth="yes"/>
      <point x="-165" y="1259"/>
      <point x="-193" y="1165"/>
      <point x="-232" y="1080" type="curve"/>
      <point x="-94" y="1001" type="line"/>
      <point x="-4" y="1092"/>
      <point x="72" y="1255"/>
      <point x="72" y="1392" type="curve" smooth="yes"/>
    </contour>
  </outline>
</glyph>
<glyph name="six.alt" format="2">
  <advance width="1036"/>
  <outline>
    <contour>
      <point x="612" y="1477" type="curve"/>
      <point x="320" y="1477"/>
      <point x="96" y="1239"/>
      <point x="96" y="815" type="curve"/>
      <point x="96" y="543" type="line"/>
      <point x="96" y="181"/>
      <point x="285" y="-21"/>
      <point x="536" y="-21" type="curve" smooth="yes"/>
      <point x="794" y="-21"/>
      <point x="963" y="197"/>
      <point x="963" y="485" type="curve"/>
      <point x="963" y="764"/>
      <point x="837" y="980"/>
      <point x="612" y="980" type="curve"/>
      <point x="375" y="980"/>
      <point x="259" y="788"/>
      <point x="259" y="534" type="curve"/>
      <point x="353" y="529" type="line"/>
      <point x="353" y="654"/>
      <point x="401" y="747"/>
      <point x="524" y="747" type="curve"/>
      <point x="617" y="747"/>
      <point x="680" y="643"/>
      <point x="680" y="485" type="curve" smooth="yes"/>
      <point x="680" y="343"/>
      <point x="631" y="214"/>
      <point x="536" y="214" type="curve" smooth="yes"/>
      <point x="445" y="214"/>
      <point x="379" y="323"/>
      <point x="379" y="543" type="curve" smooth="yes"/>
      <point x="379" y="823" type="line" smooth="yes"/>
      <point x="379" y="1103"/>
      <point x="480" y="1238"/>
      <point x="671" y="1238" type="curve"/>
      <point x="722" y="1238"/>
      <point x="768" y="1223"/>
      <point x="805" y="1209" type="curve"/>
      <point x="844" y="1431" type="line"/>
      <point x="771" y="1467"/>
      <point x="708" y="1477"/>
    </contour>
  </outline>
</glyph>
<glyph name="tildecomb_uni1ABC" format="2">
  <anchor x="-473" y="1256" name="_top"/>
  <anchor x="-473" y="1596" name="top"/>
  <anchor x="-473" y="1596" name="parent_top"/>
  <outline>
    <contour>
      <point x="-998" y="1176" type="curve"/>
      <point x="-980" y="1253" type="line"/>
      <point x="-1017" y="1275"/>
      <point x="-1062" y="1309"/>
      <point x="-1062" y="1390" type="curve" smooth="yes"/>
      <point x="-1062" y="1465"/>
      <point x="-1019" y="1500"/>
      <point x="-980" y="1524" type="curve"/>
      <point x="-998" y="1601" type="line"/>
      <point x="-1068" y="1581"/>
      <point x="-1161" y="1506"/>
      <point x="-1161" y="1389" type="curve" smooth="yes"/>
      <point x="-1161" y="1270"/>
      <point x="-1068" y="1197"/>
    </contour>
    <contour>
      <point x="-822" y="1176" type="curve"/>
      <point x="-804" y="1253" type="line"/>
      <point x="-841" y="1275"/>
      <point x="-886" y="1309"/>
      <point x="-886" y="1390" type="curve" smooth="yes"/>
      <point x="-886" y="1465"/>
      <point x="-843" y="1500"/>
      <point x="-804" y="1524" type="curve"/>
      <point x="-822" y="1601" type="line"/>
      <point x="-892" y="1581"/>
      <point x="-985" y="1506"/>
      <point x="-985" y="1389" type="curve" smooth="yes"/>
      <point x="-985" y="1270"/>
      <point x="-892" y="1197"/>
    </contour>
    <contour>
      <point x="-76" y="1176" type="line"/>
      <point x="-5" y="1197"/>
      <point x="87" y="1270"/>
      <point x="87" y="1389" type="curve" smooth="yes"/>
      <point x="87" y="1507"/>
      <point x="-5" y="1581"/>
      <point x="-76" y="1601" type="curve"/>
      <point x="-94" y="1524" type="line"/>
      <point x="-54" y="1500"/>
      <point x="-12" y="1467"/>
      <point x="-12" y="1390" type="curve" smooth="yes"/>
      <point x="-12" y="1309"/>
      <point x="-57" y="1275"/>
      <point x="-94" y="1253" type="curve"/>
    </contour>
    <contour>
      <point x="100" y="1176" type="line"/>
      <point x="171" y="1197"/>
      <point x="263" y="1270"/>
      <point x="263" y="1389" type="curve" smooth="yes"/>
      <point x="263" y="1507"/>
      <point x="171" y="1581"/>
      <point x="100" y="1601" type="curve"/>
      <point x="82" y="1524" type="line"/>
      <point x="122" y="1500"/>
      <point x="164" y="1467"/>
      <point x="164" y="1390" type="curve" smooth="yes"/>
      <point x="164" y="1309"/>
      <point x="119" y="1275"/>
      <point x="82" y="1253" type="curve"/>
    </contour>
    <contour>
      <point x="-284" y="1536" type="line"/>
      <point x="-284" y="1475"/>
      <point x="-314" y="1441"/>
      <point x="-350" y="1441" type="curve" smooth="yes"/>
      <point x="-432" y="1441"/>
      <point x="-494" y="1527"/>
      <point x="-578" y="1527" type="curve" smooth="yes"/>
      <point x="-694" y="1527"/>
      <point x="-777" y="1402"/>
      <point x="-777" y="1259" type="curve"/>
      <point x="-617" y="1249" type="line"/>
      <point x="-617" y="1310"/>
      <point x="-589" y="1344"/>
      <point x="-552" y="1344" type="curve" smooth="yes"/>
      <point x="-467" y="1344"/>
      <point x="-429" y="1258"/>
      <point x="-324" y="1258" type="curve" smooth="yes"/>
      <point x="-208" y="1258"/>
      <point x="-125" y="1378"/>
      <point x="-125" y="1525" type="curve"/>
    </contour>
  </outline>
</glyph>
<glyph name="uni02E6_uni02E6_uni02E5" format="2">
  <advance width="1141"/>
  <outline>
    <contour>
      <point x="1022" y="0" type="line"/>
      <point x="1022" y="1456" type="line"/>
      <point x="739" y="1456" type="line"/>
      <point x="450" y="1151" type="line"/>
      <point x="182" y="1151" type="line"/>
      <point x="182" y="915" type="line"/>
      <point x="520" y="915" type="line"/>
      <point x="739" y="1153" type="line"/>
      <point x="739" y="0" type="line"/>
    </contour>
  </outline>
</glyph>
<glyph name="uni02E7_uni02E9_uni02E6" format="2">
  <advance width="1141"/>
  <outline>
    <contour>
      <point x="1022" y="1456" type="line"/>
      <point x="739" y="1456" type="line"/>
      <point x="739" y="1151" type="line"/>
      <point x="499" y="477" type="line"/>
      <point x="328" y="846" type="line"/>
      <point x="135" y="724" type="line"/>
      <point x="511" y="0" type="line"/>
      <point x="739" y="621" type="line"/>
      <point x="739" y="0" type="line"/>
      <point x="1022" y="0" type="line"/>
    </contour>
  </outline>
</glyph>
<glyph name="uni02E9_uni02E9_uni02E6" format="2">
  <advance width="1141"/>
  <outline>
    <contour>
      <point x="1022" y="1456" type="line"/>
      <point x="739" y="1456" type="line"/>
      <point x="739" y="1151" type="line"/>
      <point x="427" y="237" type="line"/>
      <point x="191" y="237" type="line"/>
      <point x="191" y="0" type="line"/>
      <point x="579" y="0" type="line"/>
      <point x="739" y="518" type="line"/>
      <point x="739" y="0" type="line"/>
      <point x="1022" y="0" type="line"/>
    </contour>
  </outline>
</glyph>
